Coordinates
version=1
nRows=21
nColumns=19
inDegrees=yes

Units are S.I. units (second, meters, Newtons, ...)
If the header above contains a line with 'inDegrees', this indicates whether rotational values are in degrees (yes) or radians (no).

endheader
time	pelvis_tilt	pelvis_list	pelvis_rotation	pelvis_tx	pelvis_ty	pelvis_tz	hip_flexion_r	hip_adduction_r	hip_rotation_r	knee_angle_r	knee_angle_r_beta	ankle_angle_r	hip_flexion_l	hip_adduction_l	hip_rotation_l	knee_angle_l	knee_angle_l_beta	ankle_angle_l
     13.67333333	     -0.27063027	      5.00130166	      6.75826256	      2.24131014	      1.10086697	      1.03074037	    -23.55045449	     -5.13447106	    -20.74399483	     62.59688333	      1.09252172	    -14.11183143	     25.11931629	     10.87819920	      2.74237909	     11.78556353	      0.20569689	      7.14653719
     13.68000000	     -0.09111277	      5.19276746	      6.97486734	      2.24052236	      1.09726931	      1.03060235	    -22.12565922	     -5.28338303	    -19.83717515	     67.32941979	      1.17512006	    -13.60814913	     24.71929277	     10.91050451	      1.60275819	     13.12725595	      0.22911384	      6.43209026
     13.68666667	      0.09689386	      5.57870037	      7.17046210	      2.23946722	      1.09332660	      1.03055096	    -20.66101857	     -5.69856574	    -19.14600970	     72.09608731	      1.25831410	    -12.91737370	     24.44004290	     11.06360570	      0.19416902	     14.98183505	      0.26148235	      5.65780253
     13.69333333	     -0.03392920	      5.87678916	      7.50030135	      2.23791843	      1.08860692	      1.03042406	    -18.71523794	     -6.02950505	    -18.55815735	     76.91579640	      1.34243389	    -12.11014475	     24.77184486	     11.14431382	     -1.16846241	     17.54820570	      0.30627397	      5.03750870
     13.70000000	     -0.25700959	      6.21945213	      7.91260596	      2.23602877	      1.08347085	      1.03030234	    -16.61132186	     -6.45806833	    -18.15791778	     81.69497707	      1.42584633	    -11.15341443	     25.31904987	     11.24519909	     -2.45749517	     20.53063774	      0.35832723	      4.61023912
     13.70666667	     -0.53248273	      6.62348208	      8.33993446	      2.23375230	      1.07809256	      1.03029351	    -14.36155560	     -7.00380383	    -17.82347646	     86.42009812	      1.50831525	    -10.00904644	     25.96218567	     11.37159163	     -3.61217993	     23.73866067	      0.41431779	      4.43946247
     13.71333333	     -0.88857274	      7.04117187	      8.87455103	      2.23114220	      1.07253323	      1.03023764	    -11.95302110	     -7.58693419	    -17.57490471	     91.02716397	      1.58872372	     -8.78578797	     26.69597249	     11.55012252	     -4.47074687	     27.10762912	      0.47311738	      4.63254328
     13.72000000	     -1.26941294	      7.48730894	      9.47246463	      2.22816858	      1.06701229	      1.03020003	     -9.42982178	     -8.25360293	    -17.36902391	     95.49650925	      1.66672851	     -7.45470670	     27.37504876	     11.81356876	     -4.98403584	     30.43710448	      0.53122769	      5.23671326
     13.72666667	     -1.66125471	      8.03703441	     10.09108080	      2.22491098	      1.06170741	      1.03019481	     -6.81027599	     -9.08822692	    -17.12100703	     99.80001744	      1.74183890	     -6.04934721	     27.90826779	     12.24220589	     -5.21969795	     33.58279927	      0.58613042	      6.23420956
     13.73333333	     -2.03457438	      8.58384541	     10.71193968	      2.22137205	      1.05680054	      1.03023813	     -4.07548548	     -9.94906980	    -16.75558394	    103.89315740	      1.81327767	     -4.59722057	     28.25270122	     12.73968463	     -5.14953268	     36.49209208	      0.63690716	      7.64892297
     13.74000000	     -2.30972041	      9.33710177	     11.30025158	      2.21770831	      1.05251553	      1.03029152	     -1.38418227	    -11.09526787	    -16.24624910	    107.73898130	      1.88039996	     -3.09230476	     28.19352436	     13.48382637	     -4.92352117	     38.96423857	      0.68005425	      9.31192178
     13.74666667	     -2.76126433	      9.86277552	     11.82223127	      2.21384536	      1.04854369	      1.03048051	      1.76793486	    -11.99118270	    -15.42190863	    111.33829358	      1.94321981	     -1.70732665	     28.17833258	     14.05176559	     -4.49870777	     41.17140011	      0.71857649	     11.25873262
     13.75333333	     -2.57118809	     10.70716192	     12.21833574	      2.21011958	      1.04605921	      1.03080747	      4.21133528	    -13.14438254	    -14.45029781	    114.49473451	      1.99831009	     -0.28268056	     27.05573922	     14.84996227	     -3.95377869	     42.75908564	      0.74628683	     13.34828815
     13.76000000	     -3.20803086	     11.23058182	     12.43439858	      2.20646065	      1.04311773	      1.03129996	      7.95446060	    -14.02488237	    -12.88241041	    117.46953985	      2.05023024	      0.93503357	     26.69175613	     15.37002379	     -3.56038957	     44.02611528	      0.76840067	     15.37175554
     13.76666667	     -2.68458147	     11.69229829	     12.69892022	      2.20380759	      1.04273992	      1.03185088	     10.21203532	    -14.50463183	    -11.66196467	    119.54115790	      2.08638680	      2.05021422	     24.62101576	     15.69623130	     -2.67891565	     44.68597216	      0.77991734	     17.48372993
     13.77333333	     -0.03148727	     12.06973118	     13.15649646	      2.20421282	      1.04727118	      1.03226326	      9.28403295	    -14.35419517	    -11.53298944	    119.89408875	      2.09254660	      2.88157026	     19.41836411	     15.55682307	     -0.99911558	     44.33141826	      0.77372921	     19.41467914
     13.78000000	      2.64102390	     12.17316859	     13.27274589	      2.20448964	      1.05233582	      1.03280394	      8.58320119	    -13.83512452	    -11.11537835	    119.93733721	      2.09330143	      3.62609954	     14.05104537	     14.91635570	      0.56432539	     43.47474585	      0.75877746	     21.12688896
     13.78666667	      4.78028966	     11.99326889	     13.03938178	      2.20422572	      1.05689909	      1.03343802	      8.83284595	    -13.10341415	    -10.20812505	    119.95153740	      2.09354927	      4.37380241	      9.25801440	     13.95429865	      1.74621489	     42.24840264	      0.73737373	     22.51003993
     13.79333333	      6.23438003	     11.50494575	     12.58715510	      2.20342290	      1.06071985	      1.03404312	     10.14475400	    -12.17129924	     -8.94153874	    119.95746310	      2.09365269	      5.09766548	      5.25585540	     12.79834121	      2.58962664	     40.78827744	      0.71188974	     23.52786725
     13.80000000	      6.78136312	     10.65294620	     11.99110716	      2.20223977	      1.06350747	      1.03461549	     12.71079992	    -10.98599040	     -7.41747020	    119.95975178	      2.09369264	      5.83571939	      2.33866768	     11.48051273	      3.03986744	     39.25184434	      0.68507392	     24.16739030
     13.80666667	      6.74752283	      9.80891088	     11.25977693	      2.20061472	      1.06552628	      1.03519756	     16.02823307	     -9.89377498	     -5.71624833	    119.95865023	      2.09367341	      6.55165931	      0.03082558	     10.36886577	      3.25182263	     37.57841042	      0.65586699	     24.47205782
